HIERARCHY
ROOT hip
{
  OFFSET 5.70873 43.8894 -1.52928
  CHANNELS 6 Xposition Yposition Zposition Zrotation Xrotation Yrotation
  JOINT abdomen
  {
    OFFSET 0 5.99393 0.287273
    CHANNELS 6 Xposition Yposition Zposition Zrotation Xrotation Yrotation
    JOINT chest
    {
      OFFSET 0 6.65865 -0.856112
      CHANNELS 6 Xposition Yposition Zposition Zrotation Xrotation Yrotation
      JOINT neck
      {
        OFFSET 0 8.65624 -1.42685
        CHANNELS 6 Xposition Yposition Zposition Zrotation Xrotation Yrotation
        JOINT head
        {
          OFFSET 0 3.80999 -0.190247
          CHANNELS 6 Xposition Yposition Zposition Zrotation Xrotation Yrotation
          End Site
          {
            OFFSET 0 0 0
          }
        }
      }
      JOINT rCollar
      {
        OFFSET -1.4963 7.5744 -1.52136
        CHANNELS 6 Xposition Yposition Zposition Zrotation Xrotation Yrotation
        JOINT rShldr
        {
          OFFSET -5.47506 -0.905672 0.485692
          CHANNELS 6 Xposition Yposition Zposition Zrotation Xrotation Yrotation
          JOINT rForeArm
          {
            OFFSET -11.3069 -0.201091 0.618544
            CHANNELS 6 Xposition Yposition Zposition Zrotation Xrotation Yrotation
            JOINT rHand
            {
              OFFSET -9.61414 -0.254739 3.48553
              CHANNELS 6 Xposition Yposition Zposition Zrotation Xrotation Yrotation
              JOINT rThumb1
              {
                OFFSET 0.176263 -0.07068 1.26622
                CHANNELS 6 Xposition Yposition Zposition Zrotation Xrotation Yrotation
                JOINT rThumb2
                {
                  OFFSET -1.04683 -0.546484 1.82182
                  CHANNELS 6 Xposition Yposition Zposition Zrotation Xrotation Yrotation
                  JOINT rThumb3
                  {
                    OFFSET -0.993472 -0.621916 0.655506
                    CHANNELS 6 Xposition Yposition Zposition Zrotation Xrotation Yrotation
                    End Site
                    {
                      OFFSET -0.996134 -0.66263 0.644615
                    }
                  }
                }
              }
              JOINT rIndex1
              {
                OFFSET -2.64253 0.566363 2.4162
                CHANNELS 6 Xposition Yposition Zposition Zrotation Xrotation Yrotation
                JOINT rIndex2
                {
                  OFFSET -1.39394 -0.635138 0.899356
                  CHANNELS 6 Xposition Yposition Zposition Zrotation Xrotation Yrotation
                  JOINT rIndex3
                  {
                    OFFSET -0.622395 -0.856016 0.402182
                    CHANNELS 6 Xposition Yposition Zposition Zrotation Xrotation Yrotation
                    End Site
                    {
                      OFFSET -0.472476 -0.801802 0.34216
                    }
                  }
                }
              }
              JOINT rMid1
              {
                OFFSET -3.20814 0.514427 1.52547
                CHANNELS 6 Xposition Yposition Zposition Zrotation Xrotation Yrotation
                JOINT rMid2
                {
                  OFFSET -1.56545 -0.497974 0.68919
                  CHANNELS 6 Xposition Yposition Zposition Zrotation Xrotation Yrotation
                  JOINT rMid3
                  {
                    OFFSET -0.679943 -1.17582 0.444246
                    CHANNELS 6 Xposition Yposition Zposition Zrotation Xrotation Yrotation
                    End Site
                    {
                      OFFSET -0.343874 -0.941341 0.267611
                    }
                  }
                }
              }
              JOINT rRing1
              {
                OFFSET -3.47877 0.200518 0.597719
                CHANNELS 6 Xposition Yposition Zposition Zrotation Xrotation Yrotation
                JOINT rRing2
                {
                  OFFSET -1.28208 -0.53155 0.44672
                  CHANNELS 6 Xposition Yposition Zposition Zrotation Xrotation Yrotation
                  JOINT rRing3
                  {
                    OFFSET -0.710288 -0.970167 0.4032
                    CHANNELS 6 Xposition Yposition Zposition Zrotation Xrotation Yrotation
                    End Site
                    {
                      OFFSET -0.403228 -0.950952 0.378354
                    }
                  }
                }
              }
              JOINT rPinky1
              {
                OFFSET -3.42483 -0.278904 -0.240415
                CHANNELS 6 Xposition Yposition Zposition Zrotation Xrotation Yrotation
                JOINT rPinky2
                {
                  OFFSET -1.05787 -0.635999 0.156459
                  CHANNELS 6 Xposition Yposition Zposition Zrotation Xrotation Yrotation
                  JOINT rPinky3
                  {
                    OFFSET -0.42815 -0.754232 0.287187
                    CHANNELS 6 Xposition Yposition Zposition Zrotation Xrotation Yrotation
                    End Site
                    {
                      OFFSET -0.235717 -0.725605 0.279416
                    }
                  }
                }
              }
            }
          }
        }
      }
      JOINT lCollar
      {
        OFFSET 1.4963 7.5744 -1.52136
        CHANNELS 6 Xposition Yposition Zposition Zrotation Xrotation Yrotation
        JOINT lShldr
        {
          OFFSET 5.47506 -0.905672 0.485692
          CHANNELS 6 Xposition Yposition Zposition Zrotation Xrotation Yrotation
          JOINT lForeArm
          {
            OFFSET 11.3069 -0.201091 0.618544
            CHANNELS 6 Xposition Yposition Zposition Zrotation Xrotation Yrotation
            JOINT lHand
            {
              OFFSET 9.61414 -0.254739 3.48553
              CHANNELS 6 Xposition Yposition Zposition Zrotation Xrotation Yrotation
              JOINT lThumb1
              {
                OFFSET -0.176263 -0.07068 1.26622
                CHANNELS 6 Xposition Yposition Zposition Zrotation Xrotation Yrotation
                JOINT lThumb2
                {
                  OFFSET 1.04683 -0.546484 1.82182
                  CHANNELS 6 Xposition Yposition Zposition Zrotation Xrotation Yrotation
                  JOINT lThumb3
                  {
                    OFFSET 0.993472 -0.621916 0.655506
                    CHANNELS 6 Xposition Yposition Zposition Zrotation Xrotation Yrotation
                    End Site
                    {
                      OFFSET 0.996134 -0.66263 0.644615
                    }
                  }
                }
              }
              JOINT lIndex1
              {
                OFFSET 2.64253 0.566363 2.4162
                CHANNELS 6 Xposition Yposition Zposition Zrotation Xrotation Yrotation
                JOINT lIndex2
                {
                  OFFSET 1.39394 -0.635138 0.899356
                  CHANNELS 6 Xposition Yposition Zposition Zrotation Xrotation Yrotation
                  JOINT lIndex3
                  {
                    OFFSET 0.622395 -0.856016 0.402182
                    CHANNELS 6 Xposition Yposition Zposition Zrotation Xrotation Yrotation
                    End Site
                    {
                      OFFSET 0.472476 -0.801802 0.34216
                    }
                  }
                }
              }
              JOINT lMid1
              {
                OFFSET 3.20814 0.514427 1.52547
                CHANNELS 6 Xposition Yposition Zposition Zrotation Xrotation Yrotation
                JOINT lMid2
                {
                  OFFSET 1.56545 -0.497974 0.68919
                  CHANNELS 6 Xposition Yposition Zposition Zrotation Xrotation Yrotation
                  JOINT lMid3
                  {
                    OFFSET 0.679943 -1.17582 0.444246
                    CHANNELS 6 Xposition Yposition Zposition Zrotation Xrotation Yrotation
                    End Site
                    {
                      OFFSET 0.343874 -0.941341 0.267611
                    }
                  }
                }
              }
              JOINT lRing1
              {
                OFFSET 3.47877 0.200518 0.597719
                CHANNELS 6 Xposition Yposition Zposition Zrotation Xrotation Yrotation
                JOINT lRing2
                {
                  OFFSET 1.28208 -0.53155 0.44672
                  CHANNELS 6 Xposition Yposition Zposition Zrotation Xrotation Yrotation
                  JOINT lRing3
                  {
                    OFFSET 0.710288 -0.970167 0.4032
                    CHANNELS 6 Xposition Yposition Zposition Zrotation Xrotation Yrotation
                    End Site
                    {
                      OFFSET 0.403228 -0.950952 0.378354
                    }
                  }
                }
              }
              JOINT lPinky1
              {
                OFFSET 3.42483 -0.278904 -0.240415
                CHANNELS 6 Xposition Yposition Zposition Zrotation Xrotation Yrotation
                JOINT lPinky2
                {
                  OFFSET 1.05787 -0.635999 0.156459
                  CHANNELS 6 Xposition Yposition Zposition Zrotation Xrotation Yrotation
                  JOINT lPinky3
                  {
                    OFFSET 0.42815 -0.754232 0.287187
                    CHANNELS 6 Xposition Yposition Zposition Zrotation Xrotation Yrotation
                    End Site
                    {
                      OFFSET 0.235717 -0.725605 0.279416
                    }
                  }
                }
              }
            }
          }
        }
      }
    }
  }
  JOINT rThigh
  {
    OFFSET -4.17848 -1.02486 0.046356
    CHANNELS 6 Xposition Yposition Zposition Zrotation Xrotation Yrotation
    JOINT rShin
    {
      OFFSET 1.27155 -17.465 -0.237699
      CHANNELS 6 Xposition Yposition Zposition Zrotation Xrotation Yrotation
      JOINT rFoot
      {
        OFFSET 0.529163 -17.3815 -1.19582
        CHANNELS 6 Xposition Yposition Zposition Zrotation Xrotation Yrotation
        JOINT rToe
        {
          OFFSET -0.711591 -4.4863 4.0596
          CHANNELS 6 Xposition Yposition Zposition Zrotation Xrotation Yrotation
          End Site
          {
            OFFSET -0.869915 -1.10655 1.99006
          }
        }
      }
    }
  }
  JOINT lThigh
  {
    OFFSET 4.17848 -1.02486 0.046356
    CHANNELS 6 Xposition Yposition Zposition Zrotation Xrotation Yrotation
    JOINT lShin
    {
      OFFSET -1.27155 -17.465 -0.237699
      CHANNELS 6 Xposition Yposition Zposition Zrotation Xrotation Yrotation
      JOINT lFoot
      {
        OFFSET -0.529163 -17.3815 -1.19582
        CHANNELS 6 Xposition Yposition Zposition Zrotation Xrotation Yrotation
        JOINT lToe
        {
          OFFSET 0.711591 -4.4863 4.0596
          CHANNELS 6 Xposition Yposition Zposition Zrotation Xrotation Yrotation
          End Site
          {
            OFFSET 0.869915 -1.10655 1.99006
          }
        }
      }
    }
  }
}
MOTION
Frames:	4
Frame Time:	0.0333333
2.53404 44.3816 -0.71888 -2.04906e-005 -3.41509e-006 -6.10667e-013 -4.44089e-016 5.99393 0.287273 0.768794 -0.00571444 0.147932 4.44089e-016 6.65865 -0.856112 1.5376 -0.00944346 0.295927 0 8.65624 -1.42685 0.000141657 0.000137434 4.34433e-005 0 3.80999 -0.190247 -9.04517e-006 -5.21231e-006 -5.84323e-006 -1.4963 7.5744 -1.52136 0.00023314 -9.4671e-006 5.05671e-005 -5.47506 -0.905672 0.485692 75.3828 -5.52147 -6.20202 -11.3069 -0.201091 0.618544 0.553912 -0.575909 16.0454 -9.61414 -0.254739 3.48553 0.000776865 0.000398491 -0.000757722 0.176263 -0.07068 1.26622 0.000106367 -3.27795e-006 -1.11823e-005 -1.04683 -0.546484 1.82182 -4.33618e-005 1.16524e-006 9.77529e-006 -0.993472 -0.621916 0.655506 6.13159e-005 -6.38016e-007 -3.74966e-005 -2.64253 0.566363 2.4162 4.14008e-005 -1.60662e-005 -2.28607e-005 -1.39394 -0.635138 0.899356 3.46872e-006 -8.20946e-006 -2.38113e-006 -0.622395 -0.856016 0.402182 -4.27338e-005 -7.04403e-006 1.58152e-005 -3.20814 0.514427 1.52547 8.8104e-006 -8.58582e-006 -1.82575e-006 -1.56545 -0.497974 0.68919 -5.65994e-005 1.15668e-005 6.04306e-006 -0.679943 -1.17582 0.444246 -3.42599e-005 -1.42656e-008 8.94227e-007 -3.47877 0.200518 0.597719 2.33878e-005 -1.198e-005 -4.3082e-006 -1.28208 -0.53155 0.44672 -4.39049e-006 1.43507e-005 -2.65598e-005 -0.710288 -0.970167 0.4032 2.44055e-005 -7.35901e-006 2.85343e-005 -3.42483 -0.278904 -0.240415 3.06373e-005 1.90314e-005 -2.03053e-005 -1.05787 -0.635999 0.156459 -7.23574e-006 -1.54438e-005 -1.07192e-005 -0.42815 -0.754232 0.287187 -2.82713e-005 7.56616e-006 4.95102e-007 1.4963 7.5744 -1.52136 0.000223119 -7.02375e-006 4.27549e-005 5.47506 -0.905672 0.485692 -76.5504 4.99385 1.00238 11.3069 -0.201091 0.618544 -6.79789 -1.06329 -24.7647 9.61414 -0.254739 3.48553 -0.00081676 0.0003932 0.000651186 -0.176263 -0.07068 1.26622 5.33478e-005 4.99334e-005 9.91367e-007 1.04683 -0.546484 1.82182 3.67838e-006 6.56744e-006 8.35168e-006 0.993472 -0.621916 0.655506 -2.16692e-005 1.6932e-005 -2.49777e-005 2.64253 0.566363 2.4162 1.14537e-005 -4.51529e-006 -2.28193e-005 1.39394 -0.635138 0.899356 5.26791e-006 -2.35508e-006 1.61104e-005 0.622395 -0.856016 0.402182 -4.66168e-005 -1.28265e-005 1.66479e-006 3.20814 0.514427 1.52547 1.98784e-006 -1.03579e-005 4.30608e-006 1.56545 -0.497974 0.68919 -3.01777e-005 -8.15346e-006 2.99208e-005 0.679943 -1.17582 0.444246 4.95571e-005 -6.16529e-006 -7.40266e-005 3.47877 0.200518 0.597719 -9.88603e-006 3.04019e-005 -2.95022e-005 1.28208 -0.53155 0.44672 5.97077e-005 -1.49563e-005 5.49499e-005 0.710288 -0.970167 0.4032 -1.6292e-005 9.36869e-006 -2.42949e-005 3.42483 -0.278904 -0.240415 -2.19179e-005 1.1428e-005 -3.14049e-006 1.05787 -0.635999 0.156459 -5.58936e-007 -1.83413e-005 -3.18024e-005 0.42815 -0.754232 0.287187 -2.19474e-005 -1.22172e-005 6.83361e-006 -4.17848 -1.02486 0.046356 -9.9395 1.80464 0.17339 1.27155 -17.465 -0.237699 0.0167268 -0.392109 0.16564 0.529163 -17.3815 -1.19582 8.19465 -1.29021 -0.51088 -0.711591 -4.4863 4.0596 0.00021083 -4.70029e-006 3.28295e-005 4.17848 -1.02486 0.046356 2.02965 -1.65087 0.75572 -1.27155 -17.465 -0.237699 0.0476431 3.37686 -0.0975882 -0.529163 -17.3815 -1.19582 0.864062 -1.97503 0.0155372 0.711591 -4.4863 4.0596 -0.000110147 -1.42214e-005 -1.39014e-006 
2.56773 44.3865 -0.7334 0.0631028 -0.036546 0.868267 0 5.99393 0.287273 0.658129 0.0022198 0.258349 -4.44089e-016 6.65865 -0.856112 1.31624 0.00740568 0.516649 8.88178e-016 8.65624 -1.42685 0.0594727 -0.22275 -0.877509 0 3.80999 -0.190247 0.307304 -0.0388066 -0.436783 -1.4963 7.5744 -1.52136 -0.0656314 0.00147744 -0.13909 -5.47506 -0.905672 0.485692 74.2866 -5.84798 -5.50507 -11.3069 -0.201091 0.618544 -0.556163 -0.960695 13.4575 -9.61414 -0.254739 3.48553 0.867552 6.34185 -0.721628 0.176263 -0.07068 1.26622 9.68565e-005 -2.74297e-005 -2.21844e-005 -1.04683 -0.546484 1.82182 -4.35265e-005 6.55219e-006 1.39608e-005 -0.993472 -0.621916 0.655506 4.56138e-005 3.67563e-006 -3.45268e-005 -2.64253 0.566363 2.4162 5.37153e-005 -1.62394e-005 -1.61396e-005 -1.39394 -0.635138 0.899356 -1.27148e-007 -2.83422e-006 -6.42733e-006 -0.622395 -0.856016 0.402182 -4.06569e-005 -1.19117e-005 2.4208e-005 -3.20814 0.514427 1.52547 1.84565e-005 -1.20806e-005 -5.26741e-006 -1.56545 -0.497974 0.68919 -6.23576e-005 1.05023e-005 1.81429e-006 -0.679943 -1.17582 0.444246 -3.27754e-005 5.01002e-006 9.77089e-006 -3.47877 0.200518 0.597719 2.96779e-005 -7.41726e-006 -1.53549e-005 -1.28208 -0.53155 0.44672 -3.31929e-005 1.42364e-005 -8.49857e-006 -0.710288 -0.970167 0.4032 2.9685e-005 9.01085e-008 3.59777e-005 -3.42483 -0.278904 -0.240415 3.15005e-005 1.82921e-005 -2.66918e-005 -1.05787 -0.635999 0.156459 -2.152e-005 -1.85881e-005 -1.43768e-005 -0.42815 -0.754232 0.287187 -3.7752e-005 1.11635e-005 7.68603e-006 1.4963 7.5744 -1.52136 0.375919 -0.00111527 -0.042231 5.47506 -0.905672 0.485692 -76.8126 4.99183 1.61691 11.3069 -0.201091 0.618544 -6.48037 -0.614995 -23.5071 9.61414 -0.254739 3.48553 0.146487 1.25599 0.74057 -0.176263 -0.07068 1.26622 3.8658e-005 3.54807e-005 5.09647e-006 1.04683 -0.546484 1.82182 8.0081e-006 8.70607e-006 6.44739e-006 0.993472 -0.621916 0.655506 -2.58986e-005 8.66175e-006 -1.5616e-005 2.64253 0.566363 2.4162 -2.27359e-006 -9.93198e-006 -1.34338e-005 1.39394 -0.635138 0.899356 -6.03632e-007 1.83894e-006 8.19448e-006 0.622395 -0.856016 0.402182 -3.5922e-005 -1.7919e-005 -3.18939e-007 3.20814 0.514427 1.52547 -1.22669e-005 -1.15791e-005 1.60187e-006 1.56545 -0.497974 0.68919 -5.36879e-005 -1.33057e-005 3.24804e-005 0.679943 -1.17582 0.444246 6.36701e-005 -5.83848e-006 -7.02188e-005 3.47877 0.200518 0.597719 -8.56201e-006 2.76594e-005 -2.77227e-005 1.28208 -0.53155 0.44672 9.00451e-005 -1.62127e-005 5.25372e-005 0.710288 -0.970167 0.4032 -8.66405e-006 -3.44098e-006 -1.52032e-005 3.42483 -0.278904 -0.240415 -2.04699e-005 5.02272e-006 -3.70817e-007 1.05787 -0.635999 0.156459 9.6859e-006 -1.94861e-005 -2.69887e-005 0.42815 -0.754232 0.287187 -1.15184e-005 -1.11292e-005 -7.75747e-008 -4.17848 -1.02486 0.046356 -10.0237 2.0791 -0.414448 1.27155 -17.465 -0.237699 0.0110437 -0.414768 0.153059 0.529163 -17.3815 -1.19582 8.25354 -1.39512 -0.748266 -0.711591 -4.4863 4.0596 0.0107727 0.0754505 -0.0020096 4.17848 -1.02486 0.046356 1.8765 -1.87456 -0.403617 -1.27155 -17.465 -0.237699 0.0515601 3.43743 -0.0992649 -0.529163 -17.3815 -1.19582 0.852941 -1.80299 0.243153 0.711591 -4.4863 4.0596 0.049531 0.036597 -0.00220525 
2.62602 44.385 -0.780964 0.157253 -0.127297 1.61392 4.44089e-016 5.99393 0.287273 0.565324 0.0482907 0.629948 0 6.65865 -0.856112 1.13008 0.102756 1.25939 -1.77636e-015 8.65624 -1.42685 0.0701512 -0.736106 -2.23323 0 3.80999 -0.190247 0.720723 -0.00188479 -1.11446 -1.4963 7.5744 -1.52136 -0.687524 0.0081972 -0.80462 -5.47506 -0.905672 0.485692 72.0429 -6.72395 -3.07925 -11.3069 -0.201091 0.618544 -1.14445 -2.30832 7.71246 -9.61414 -0.254739 3.48553 0.321827 13.7916 -1.19385 0.176263 -0.07068 1.26622 0.000119746 -5.66375e-005 -1.29239e-005 -1.04683 -0.546484 1.82182 -5.13735e-005 1.34418e-005 1.44894e-005 -0.993472 -0.621916 0.655506 4.91404e-005 5.75849e-006 -3.09764e-005 -2.64253 0.566363 2.4162 4.31337e-005 -2.15363e-005 -1.51386e-005 -1.39394 -0.635138 0.899356 -6.62412e-006 1.10956e-006 -7.2915e-006 -0.622395 -0.856016 0.402182 -4.55517e-005 -9.64097e-006 2.18315e-005 -3.20814 0.514427 1.52547 2.14893e-005 1.07504e-005 -6.4068e-006 -1.56545 -0.497974 0.68919 -6.13663e-005 1.24205e-005 7.42843e-006 -0.679943 -1.17582 0.444246 -4.15109e-005 1.17965e-005 8.82726e-006 -3.47877 0.200518 0.597719 2.28652e-005 2.10956e-006 -8.26662e-006 -1.28208 -0.53155 0.44672 -3.43488e-005 1.96061e-005 -1.15673e-005 -0.710288 -0.970167 0.4032 1.87509e-005 2.12686e-006 3.1225e-005 -3.42483 -0.278904 -0.240415 3.26561e-005 3.22496e-005 -1.92487e-005 -1.05787 -0.635999 0.156459 -9.19149e-006 -7.39751e-006 -9.85672e-006 -0.42815 -0.754232 0.287187 -3.21093e-005 1.43798e-005 1.27068e-005 1.4963 7.5744 -1.52136 0.78555 -0.0161081 -0.343322 5.47506 -0.905672 0.485692 -76.9432 5.05781 1.75215 11.3069 -0.201091 0.618544 -6.1277 -0.29555 -22.2286 9.61414 -0.254739 3.48553 0.212525 2.13116 1.43012 -0.176263 -0.07068 1.26622 5.39679e-005 3.45899e-005 -4.16597e-006 1.04683 -0.546484 1.82182 1.36429e-005 -8.80746e-007 2.31533e-005 0.993472 -0.621916 0.655506 -2.0065e-005 8.5799e-006 -2.63606e-005 2.64253 0.566363 2.4162 1.29332e-006 -3.78837e-006 -2.30021e-005 1.39394 -0.635138 0.899356 1.5201e-005 -9.70797e-006 1.79362e-005 0.622395 -0.856016 0.402182 -4.64921e-005 -1.43353e-005 9.101e-007 3.20814 0.514427 1.52547 -3.0206e-005 -2.74199e-005 5.94275e-007 1.56545 -0.497974 0.68919 -4.82691e-005 -1.53294e-005 3.71399e-005 0.679943 -1.17582 0.444246 6.43813e-005 -1.3508e-005 -6.84443e-005 3.47877 0.200518 0.597719 -2.70282e-005 2.55504e-005 -3.24169e-005 1.28208 -0.53155 0.44672 8.89803e-005 -1.81592e-005 5.43368e-005 0.710288 -0.970167 0.4032 -2.01107e-005 7.02831e-006 -1.66547e-005 3.42483 -0.278904 -0.240415 -1.49508e-005 5.10849e-006 -1.98392e-006 1.05787 -0.635999 0.156459 -1.54071e-005 -2.0332e-005 -2.86404e-005 0.42815 -0.754232 0.287187 -1.72814e-005 -1.66266e-005 1.411e-005 -4.17848 -1.02486 0.046356 -10.1953 2.29718 -0.626506 1.27155 -17.465 -0.237699 0.0173233 -0.400234 0.160471 0.529163 -17.3815 -1.19582 8.39906 -1.51396 -1.22425 -0.711591 -4.4863 4.0596 0.0353344 0.249062 -0.00669778 4.17848 -1.02486 0.046356 1.67331 -1.84314 -1.22791 -1.27155 -17.465 -0.237699 0.0635 3.27434 -0.0791299 -0.529163 -17.3815 -1.19582 0.860508 -1.60352 0.256348 0.711591 -4.4863 4.0596 0.11638 0.0873102 -0.00555406 
2.72794 44.3739 -0.854171 0.181384 -0.370702 2.11042 0 5.99393 0.287273 0.536617 0.120197 1.20718 0 6.65865 -0.856112 1.07059 0.251658 2.41319 0 8.65624 -1.42685 0.104216 -1.11622 -3.83976 -8.88178e-016 3.80999 -0.190247 1.09347 -0.0946481 -1.90883 -1.4963 7.5744 -1.52136 -1.92436 0.0129621 -1.41217 -5.47506 -0.905672 0.485692 67.7793 -9.46427 0.114943 -11.3069 -0.201091 0.618544 -0.932663 -6.77205 0.495879 -9.61414 -0.254739 3.48553 0.897136 12.21 -2.8831 0.176263 -0.07068 1.26622 0.000121658 -0.000102953 -1.1956e-005 -1.04683 -0.546484 1.82182 -6.06987e-005 1.7287e-005 2.32369e-005 -0.993472 -0.621916 0.655506 3.2203e-005 -3.77842e-007 -3.46098e-005 -2.64253 0.566363 2.4162 3.41793e-005 -2.14166e-005 -1.53666e-005 -1.39394 -0.635138 0.899356 1.87057e-006 1.89478e-006 -9.437e-006 -0.622395 -0.856016 0.402182 -6.81534e-005 -9.52408e-006 2.15406e-005 -3.20814 0.514427 1.52547 2.07351e-005 2.42567e-005 2.37319e-006 -1.56545 -0.497974 0.68919 -8.15049e-005 1.69052e-005 8.87386e-006 -0.679943 -1.17582 0.444246 -3.60709e-005 1.67016e-005 2.06656e-005 -3.47877 0.200518 0.597719 1.69582e-005 1.83116e-005 -8.01382e-006 -1.28208 -0.53155 0.44672 -5.77044e-006 2.12692e-005 -1.42462e-005 -0.710288 -0.970167 0.4032 2.08424e-005 5.94693e-007 2.84273e-005 -3.42483 -0.278904 -0.240415 5.45093e-006 5.37597e-005 -2.56051e-005 -1.05787 -0.635999 0.156459 -1.514e-005 -2.91558e-006 1.87529e-006 -0.42815 -0.754232 0.287187 -3.98286e-005 1.54711e-005 2.64685e-005 1.4963 7.5744 -1.52136 1.08271 -0.0391818 -0.790154 5.47506 -0.905672 0.485692 -76.7241 4.9065 1.83335 11.3069 -0.201091 0.618544 -6.11318 -0.156186 -21.2119 9.61414 -0.254739 3.48553 0.399195 3.45294 2.24469 -0.176263 -0.07068 1.26622 4.05729e-005 1.91955e-005 -8.12616e-007 1.04683 -0.546484 1.82182 -3.77317e-007 5.58289e-006 2.1613e-005 0.993472 -0.621916 0.655506 -3.50365e-005 7.38663e-006 -1.80134e-005 2.64253 0.566363 2.4162 -8.83497e-006 -3.02884e-006 -1.82145e-005 1.39394 -0.635138 0.899356 2.06815e-005 -1.2442e-005 1.89999e-005 0.622395 -0.856016 0.402182 -4.743e-005 -1.62501e-005 8.19014e-006 3.20814 0.514427 1.52547 -7.05604e-005 -6.53595e-005 4.32413e-006 1.56545 -0.497974 0.68919 -3.78458e-005 -2.25131e-005 4.83215e-005 0.679943 -1.17582 0.444246 5.43279e-005 -1.75419e-005 -5.84389e-005 3.47877 0.200518 0.597719 -2.2539e-005 2.76437e-005 -2.94773e-005 1.28208 -0.53155 0.44672 7.94544e-005 -2.28191e-005 5.658e-005 0.710288 -0.970167 0.4032 -1.17303e-007 1.07494e-006 -1.30497e-006 3.42483 -0.278904 -0.240415 -2.18388e-005 -6.51113e-006 -4.90315e-006 1.05787 -0.635999 0.156459 -1.59972e-005 -3.47342e-005 -1.85094e-005 0.42815 -0.754232 0.287187 -1.68103e-005 -2.03039e-005 8.78715e-006 -4.17848 -1.02486 0.046356 -10.3512 2.54239 -0.806715 1.27155 -17.465 -0.237699 0.034206 -0.348707 0.174313 0.529163 -17.3815 -1.19582 8.47704 -1.53642 -1.47772 -0.711591 -4.4863 4.0596 0.0525084 0.365852 -0.00991557 4.17848 -1.02486 0.046356 1.44846 -1.6391 -1.40495 -1.27155 -17.465 -0.237699 0.09412 3.20594 -0.0326343 -0.529163 -17.3815 -1.19582 1.14084 -1.49183 -0.16962 0.711591 -4.4863 4.0596 0.0769685 0.000647338 -0.00085253 
